<svg data-v-423bf9ae="" xmlns="http://www.w3.org/2000/svg" viewBox="0 0 157.43983522270682 60" class="font"><!----><!----><!----><g data-v-423bf9ae="" id="8d1218bd-20fa-4fc9-ad78-fdba8f47be99" fill="white" transform="matrix(5.7747832548013,0,0,5.7747832548013,-4.042347391022005,-18.99903716484294)"><path d="M2.46 3.72L2.46 3.72L2.46 13.52L0.70 13.52L0.70 5.15L0.70 5.15Q0.70 4.48 1.18 4.10L1.18 4.10L1.18 4.10Q1.65 3.71 2.46 3.72ZM4.14 13.52L4.14 7.74L4.14 7.74Q4.17 7.32 4.32 7.04L4.32 7.04L4.32 7.04Q4.47 6.76 4.70 6.59L4.70 6.59L4.70 6.59Q4.94 6.43 5.26 6.35L5.26 6.35L5.26 6.35Q5.57 6.27 5.95 6.27L5.95 6.27L5.95 13.52L4.14 13.52ZM5.05 3.29L5.05 3.29L5.05 3.29Q5.53 3.29 5.87 3.64L5.87 3.64L5.87 3.64Q6.22 3.98 6.22 4.47L6.22 4.47L6.22 4.47Q6.22 4.96 5.88 5.31L5.88 5.31L5.88 5.31Q5.68 5.50 5.43 5.58L5.43 5.58L5.43 5.58Q5.17 5.66 4.91 5.73L4.91 5.73L4.91 5.73Q4.65 5.81 4.43 5.92L4.43 5.92L4.43 5.92Q4.21 6.02 4.13 6.26L4.13 6.26L4.13 6.26Q4.06 6.03 3.98 5.68L3.98 5.68L3.98 5.68Q3.91 5.33 3.89 4.96L3.89 4.96L3.89 4.96Q3.86 4.58 3.93 4.22L3.93 4.22L3.93 4.22Q3.99 3.86 4.23 3.63L4.23 3.63L4.23 3.63Q4.56 3.29 5.05 3.29ZM9.42 6.27L9.42 7.11L9.42 7.11Q9.53 6.86 9.77 6.68L9.77 6.68L9.77 6.68Q10.00 6.50 10.28 6.37L10.28 6.37L10.28 6.37Q10.56 6.24 10.85 6.17L10.85 6.17L10.85 6.17Q11.14 6.10 11.40 6.09L11.40 6.09L11.40 6.09Q11.93 6.06 12.45 6.24L12.45 6.24L12.45 6.24Q12.96 6.41 13.40 6.85L13.40 6.85L13.40 6.85Q14.03 7.50 14.03 8.74L14.03 8.74L14.03 13.52L12.24 13.52L12.24 13.52Q12.24 13.29 12.24 12.88L12.24 12.88L12.24 12.88Q12.25 12.47 12.25 11.99L12.25 11.99L12.25 11.99Q12.25 11.51 12.25 10.99L12.25 10.99L12.25 10.99Q12.25 10.47 12.24 10.01L12.24 10.01L12.24 10.01Q12.22 9.55 12.19 9.18L12.19 9.18L12.19 9.18Q12.17 8.82 12.12 8.65L12.12 8.65L12.12 8.65Q12.01 8.20 11.70 7.98L11.70 7.98L11.70 7.98Q11.38 7.76 11.02 7.76L11.02 7.76L11.02 7.76Q10.54 7.76 10.28 8.02L10.28 8.02L10.28 8.02Q10.01 8.27 10.01 8.69L10.01 8.69L10.01 8.69Q9.84 8.64 9.67 8.46L9.67 8.46L9.67 8.46Q9.51 8.29 9.42 8.09L9.42 8.09L9.42 8.47L9.42 13.52L7.62 13.52L7.62 6.27L9.42 6.27ZM20.37 10.72L20.37 10.72L20.37 10.72Q19.61 10.92 18.99 10.86L18.99 10.86L18.99 10.86Q18.37 10.81 17.97 10.56L17.97 10.56L17.97 10.56Q17.57 10.32 17.44 9.91L17.44 9.91L17.44 9.91Q17.30 9.49 17.51 8.97L17.51 8.97L17.51 8.97Q17.95 9.34 18.52 9.37L18.52 9.37L18.52 9.37Q19.10 9.41 19.63 9.35L19.63 9.35L19.63 9.35Q20.08 9.31 20.31 9.16L20.31 9.16L20.31 9.16Q20.54 9.00 20.59 8.80L20.59 8.80L20.59 8.80Q20.65 8.60 20.55 8.37L20.55 8.37L20.55 8.37Q20.45 8.15 20.24 7.97L20.24 7.97L20.24 7.97Q20.02 7.78 19.71 7.67L19.71 7.67L19.71 7.67Q19.39 7.56 19.01 7.57L19.01 7.57L19.01 7.57Q18.61 7.60 18.24 7.77L18.24 7.77L18.24 7.77Q17.88 7.94 17.60 8.23L17.60 8.23L17.60 8.23Q17.32 8.53 17.15 8.92L17.15 8.92L17.15 8.92Q16.98 9.31 16.97 9.79L16.97 9.79L16.97 9.79Q16.95 10.18 17.06 10.56L17.06 10.56L17.06 10.56Q17.16 10.93 17.37 11.25L17.37 11.25L17.37 11.25Q17.58 11.56 17.88 11.78L17.88 11.78L17.88 11.78Q18.17 12.00 18.55 12.05L18.55 12.05L18.55 12.05Q19.08 12.15 19.64 11.98L19.64 11.98L19.64 11.98Q20.20 11.82 20.64 11.37L20.64 11.37L22.11 12.08L22.11 12.08Q21.53 12.94 20.75 13.31L20.75 13.31L20.75 13.31Q19.96 13.68 18.96 13.68L18.96 13.68L18.96 13.68Q18.02 13.68 17.31 13.35L17.31 13.35L17.31 13.35Q16.60 13.02 16.14 12.47L16.14 12.47L16.14 12.47Q15.67 11.93 15.44 11.24L15.44 11.24L15.44 11.24Q15.20 10.54 15.22 9.82L15.22 9.82L15.22 9.82Q15.23 9.10 15.50 8.41L15.50 8.41L15.50 8.41Q15.76 7.71 16.27 7.18L16.27 7.18L16.27 7.18Q16.83 6.58 17.58 6.33L17.58 6.33L17.58 6.33Q18.33 6.08 19.11 6.08L19.11 6.08L19.11 6.08Q19.98 6.08 20.61 6.37L20.61 6.37L20.61 6.37Q21.24 6.66 21.63 7.12L21.63 7.12L21.63 7.12Q22.02 7.57 22.15 8.13L22.15 8.13L22.15 8.13Q22.27 8.68 22.13 9.20L22.13 9.20L22.13 9.20Q21.98 9.72 21.55 10.13L21.55 10.13L21.55 10.13Q21.11 10.54 20.37 10.72ZM23.41 13.52L23.41 6.24L24.98 6.24L24.98 7.17L24.98 7.17Q25.21 6.68 25.59 6.39L25.59 6.39L25.59 6.39Q25.96 6.10 26.40 6.08L26.40 6.08L26.40 6.08Q26.99 6.03 27.36 6.29L27.36 6.29L27.36 6.29Q27.72 6.55 27.87 6.92L27.87 6.92L27.87 6.92Q28.01 7.29 27.94 7.68L27.94 7.68L27.94 7.68Q27.87 8.06 27.57 8.29L27.57 8.29L27.57 8.29Q27.44 7.94 27.08 7.83L27.08 7.83L27.08 7.83Q26.73 7.73 26.33 7.86L26.33 7.86L26.33 7.86Q25.94 7.99 25.63 8.36L25.63 8.36L25.63 8.36Q25.31 8.72 25.26 9.31L25.26 9.31L25.26 9.31Q25.23 9.65 25.23 9.98L25.23 9.98L25.23 9.98Q25.23 10.30 25.23 10.58L25.23 10.58L25.23 13.52L23.41 13.52Z"></path></g><!----><!----></svg>